<svg width="251" height="73" viewBox="0 0 251 73" fill="none" xmlns="http://www.w3.org/2000/svg">
<mask id="mask0_22_23" style="mask-type:luminance" maskUnits="userSpaceOnUse" x="0" y="1" width="71" height="71">
<path d="M55.7412 1.35167L0 16.2071L14.9358 71.6483L70.6771 56.7929L55.7412 1.35167Z" fill="white"/>
</mask>
<g mask="url(#mask0_22_23)">
<mask id="mask1_22_23" style="mask-type:luminance" maskUnits="userSpaceOnUse" x="0" y="1" width="71" height="71">
<path d="M55.7413 1L0 15.8554L14.9358 71.2964L70.6772 56.4412L55.7413 1Z" fill="white"/>
</mask>
<g mask="url(#mask1_22_23)">
<path d="M40.7281 9.95292L17.5026 16.1427C11.0923 17.8511 7.27755 24.389 8.98895 30.7416L12.7105 44.5558L13.3328 46.8658C15.0442 53.2184 21.6345 56.9834 28.0447 55.2749L31.5286 54.3465C32.1556 54.1794 33.1038 54.3724 33.6355 54.7753L38.3578 58.444C40.4383 60.0684 42.9467 59.3997 43.9319 56.9583L46.1773 51.4329C46.463 50.7377 47.0664 50.2055 47.7864 50.0136L51.2702 49.0852C57.6807 47.3768 61.495 40.8389 59.784 34.4863L55.44 18.3621C53.7286 12.0095 47.1383 8.24455 40.7281 9.95292ZM26.0483 38.6242C24.7477 38.9709 23.4458 38.2037 23.1034 36.9332C22.7612 35.6626 23.5263 34.3446 24.8037 34.0041C26.0811 33.6637 27.4063 34.4247 27.7486 35.6952C28.0908 36.9657 27.349 38.2776 26.0483 38.6242ZM35.3386 36.1483C34.0379 36.4949 32.736 35.7278 32.3937 34.4572C32.0514 33.1867 32.8165 31.8686 34.0939 31.5282C35.3713 31.1878 36.6965 31.9488 37.0388 33.2193C37.3811 34.4898 36.6392 35.8017 35.3386 36.1483ZM44.6288 33.6724C43.3282 34.0191 42.0262 33.2518 41.6839 31.9814C41.3416 30.7108 42.1067 29.3928 43.3841 29.0523C44.6615 28.7119 45.9867 29.4728 46.329 30.7434C46.6713 32.0139 45.9294 33.3258 44.6288 33.6724Z" fill="#2B2B2B"/>
</g>
</g>
<path d="M95.6921 54.2903C91.6043 54.2903 88.1083 53.4878 85.2038 51.8829C82.2994 50.278 80.0583 48.0312 78.4806 45.1424C76.9388 42.2179 76.1678 38.7764 76.1678 34.8176C76.1678 31.8575 76.5981 29.2005 77.4587 26.8467C78.3551 24.4572 79.646 22.4244 81.3313 20.7481C83.0166 19.0363 85.0604 17.7167 87.4628 16.7894C89.9011 15.8622 92.6442 15.3985 95.6921 15.3985C97.4849 15.3985 99.2957 15.6303 101.124 16.094C102.989 16.5219 104.603 17.1461 105.965 17.9663C106.862 18.4656 107.471 19.0898 107.794 19.8387C108.117 20.5877 108.206 21.3366 108.063 22.0856C107.955 22.8345 107.65 23.4765 107.148 24.0114C106.682 24.5464 106.091 24.8852 105.373 25.0278C104.656 25.1705 103.85 25.01 102.953 24.5464C101.877 23.9044 100.748 23.4408 99.5646 23.1555C98.3813 22.8702 97.1801 22.7275 95.961 22.7275C93.5586 22.7275 91.5326 23.209 89.8832 24.1719C88.2696 25.0992 87.0505 26.4544 86.2258 28.2376C85.4011 30.0208 84.9887 32.2142 84.9887 34.8176C84.9887 37.3855 85.4011 39.5788 86.2258 41.3977C87.0505 43.2165 88.2696 44.6074 89.8832 45.5704C91.5326 46.4976 93.5586 46.9613 95.961 46.9613C97.1084 46.9613 98.2738 46.8186 99.4571 46.5333C100.676 46.248 101.842 45.8022 102.953 45.1959C103.885 44.7323 104.71 44.5718 105.427 44.7144C106.18 44.8214 106.79 45.1424 107.256 45.6774C107.758 46.1767 108.063 46.783 108.17 47.4962C108.314 48.2095 108.242 48.9228 107.955 49.6361C107.668 50.3494 107.13 50.9557 106.342 51.455C105.015 52.3466 103.383 53.042 101.447 53.5413C99.5108 54.0406 97.5925 54.2903 95.6921 54.2903ZM125.19 54.2903C122.071 54.2903 119.381 53.7375 117.122 52.6319C114.899 51.4906 113.178 49.9036 111.959 47.8707C110.776 45.8022 110.184 43.377 110.184 40.5952C110.184 37.8848 110.758 35.5131 111.905 33.4802C113.053 31.4117 114.648 29.8068 116.692 28.6656C118.772 27.4887 121.12 26.9002 123.738 26.9002C125.638 26.9002 127.36 27.2212 128.901 27.8631C130.443 28.4694 131.77 29.361 132.882 30.5379C133.993 31.6792 134.836 33.0879 135.409 34.7641C135.983 36.4047 136.27 38.2414 136.27 40.2743C136.27 40.9519 136.055 41.469 135.625 41.8256C135.194 42.1466 134.567 42.3071 133.742 42.3071H116.853V38.1344H130.407L129.547 38.8834C129.547 37.4211 129.332 36.2085 128.901 35.2456C128.471 34.247 127.844 33.4981 127.019 32.9988C126.23 32.4995 125.244 32.2498 124.061 32.2498C122.734 32.2498 121.604 32.553 120.672 33.1593C119.74 33.7656 119.023 34.6393 118.521 35.7806C118.019 36.9218 117.768 38.2949 117.768 39.8998V40.3277C117.768 43.0382 118.395 45.0354 119.65 46.3193C120.941 47.6032 122.842 48.2452 125.352 48.2452C126.212 48.2452 127.198 48.1382 128.31 47.9242C129.421 47.7102 130.461 47.3714 131.429 46.9078C132.254 46.5155 132.989 46.3906 133.635 46.5333C134.28 46.6403 134.782 46.9256 135.141 47.3892C135.499 47.8529 135.696 48.3878 135.732 48.9941C135.804 49.6004 135.678 50.2067 135.356 50.813C135.033 51.3836 134.495 51.8651 133.742 52.2574C132.523 52.935 131.142 53.4343 129.601 53.7553C128.095 54.1119 126.624 54.2903 125.19 54.2903ZM145.081 63.8126C143.755 63.8126 142.733 63.4559 142.016 62.7426C141.334 62.065 140.994 61.0486 140.994 59.6934V31.0729C140.994 29.7533 141.334 28.7547 142.016 28.0771C142.733 27.3638 143.719 27.0072 144.974 27.0072C146.3 27.0072 147.304 27.3638 147.986 28.0771C148.667 28.7547 149.008 29.7533 149.008 31.0729V34.7106L148.416 32.6243C148.954 30.9124 150.03 29.5394 151.643 28.5051C153.293 27.4352 155.175 26.9002 157.291 26.9002C159.586 26.9002 161.594 27.453 163.315 28.5586C165.072 29.6642 166.434 31.2334 167.402 33.2663C168.371 35.2991 168.855 37.7243 168.855 40.5417C168.855 43.3592 168.371 45.8022 167.402 47.8707C166.434 49.9392 165.09 51.5263 163.368 52.6319C161.647 53.7375 159.621 54.2903 157.291 54.2903C155.211 54.2903 153.364 53.791 151.751 52.7924C150.137 51.7581 149.044 50.4207 148.47 48.7801H149.115V59.6934C149.115 61.0486 148.757 62.065 148.04 62.7426C147.358 63.4559 146.372 63.8126 145.081 63.8126ZM154.87 48.2452C156.018 48.2452 157.022 47.9599 157.882 47.3892C158.779 46.8186 159.46 45.9805 159.926 44.8749C160.428 43.7337 160.679 42.2893 160.679 40.5417C160.679 37.9383 160.141 36.0302 159.066 34.8176C157.99 33.5694 156.591 32.9453 154.87 32.9453C153.723 32.9453 152.701 33.2128 151.805 33.7477C150.944 34.2827 150.263 35.1208 149.761 36.262C149.259 37.3676 149.008 38.7942 149.008 40.5417C149.008 43.1452 149.546 45.0889 150.621 46.3728C151.697 47.6211 153.113 48.2452 154.87 48.2452ZM183.557 54.2903C181.334 54.2903 179.487 53.8801 178.017 53.0598C176.547 52.2396 175.453 51.0092 174.736 49.3686C174.055 47.6924 173.714 45.6239 173.714 43.163V31.0729C173.714 29.7177 174.055 28.7012 174.736 28.0236C175.453 27.346 176.457 27.0072 177.748 27.0072C179.039 27.0072 180.043 27.346 180.76 28.0236C181.477 28.7012 181.836 29.7177 181.836 31.0729V43.377C181.836 44.9463 182.159 46.1232 182.804 46.9078C183.45 47.6567 184.472 48.0312 185.87 48.0312C187.412 48.0312 188.667 47.4962 189.635 46.4263C190.639 45.3207 191.141 43.8763 191.141 42.0931V31.0729C191.141 29.7177 191.482 28.7012 192.163 28.0236C192.88 27.346 193.884 27.0072 195.175 27.0072C196.502 27.0072 197.506 27.346 198.187 28.0236C198.904 28.7012 199.263 29.7177 199.263 31.0729V50.0641C199.263 52.8102 197.954 54.1833 195.336 54.1833C194.045 54.1833 193.059 53.8266 192.378 53.1133C191.697 52.4001 191.356 51.3836 191.356 50.0641V46.4798L192.163 48.5662C191.374 50.385 190.245 51.7938 188.774 52.7924C187.304 53.791 185.565 54.2903 183.557 54.2903ZM210.442 54.1833C209.079 54.1833 208.039 53.8088 207.322 53.0598C206.605 52.3109 206.246 51.2588 206.246 49.9036V19.7852C206.246 18.43 206.605 17.3779 207.322 16.6289C208.039 15.88 209.079 15.5055 210.442 15.5055C211.768 15.5055 212.79 15.88 213.507 16.6289C214.225 17.3779 214.583 18.43 214.583 19.7852V49.9036C214.583 51.2588 214.225 52.3109 213.507 53.0598C212.826 53.8088 211.804 54.1833 210.442 54.1833ZM225.602 54.1833C224.276 54.1833 223.254 53.8266 222.537 53.1133C221.855 52.4001 221.515 51.3836 221.515 50.0641V31.0729C221.515 29.7533 221.855 28.7547 222.537 28.0771C223.254 27.3638 224.24 27.0072 225.495 27.0072C226.786 27.0072 227.772 27.3638 228.453 28.0771C229.134 28.7547 229.475 29.7533 229.475 31.0729V34.1222L228.883 32.3568C229.708 30.6093 230.927 29.2719 232.541 28.3446C234.19 27.3817 236.055 26.9002 238.135 26.9002C240.25 26.9002 241.989 27.3103 243.352 28.1306C244.714 28.9152 245.736 30.1278 246.418 31.7684C247.099 33.3732 247.439 35.4239 247.439 37.9204V50.0641C247.439 51.3836 247.081 52.4001 246.364 53.1133C245.682 53.8266 244.678 54.1833 243.352 54.1833C242.061 54.1833 241.057 53.8266 240.34 53.1133C239.658 52.4001 239.318 51.3836 239.318 50.0641V38.2949C239.318 36.476 238.977 35.1743 238.296 34.3897C237.65 33.5694 236.646 33.1593 235.284 33.1593C233.563 33.1593 232.182 33.6942 231.142 34.7641C230.138 35.8341 229.636 37.2606 229.636 39.0438V50.0641C229.636 52.8102 228.292 54.1833 225.602 54.1833Z" fill="#2B2B2B"/>
</svg>
